<svg width="385" height="452" viewBox="0 0 385 452" fill="none" xmlns="http://www.w3.org/2000/svg">
<rect width="385" height="452" rx="10" fill="white"/>
<path d="M295.129 39H296.375L298.643 31.097L300.911 39H302.157L305.076 28.92H303.767L301.534 36.893L299.294 28.92L297.985 28.927L295.752 36.893L293.512 28.92H292.21L295.129 39ZM306.352 35.57H312.148C312.26 32.882 310.93 31.23 308.655 31.23C306.457 31.23 305.015 32.791 305.015 35.269C305.015 37.635 306.478 39.21 308.711 39.21C310.174 39.21 311.427 38.447 312.022 37.11L310.825 36.697C310.405 37.558 309.649 38.027 308.655 38.027C307.262 38.027 306.45 37.138 306.352 35.57ZM308.697 32.35C309.978 32.35 310.699 33.085 310.853 34.569H306.373C306.548 33.134 307.339 32.35 308.697 32.35ZM314.624 35.57H320.42C320.532 32.882 319.202 31.23 316.927 31.23C314.729 31.23 313.287 32.791 313.287 35.269C313.287 37.635 314.75 39.21 316.983 39.21C318.446 39.21 319.699 38.447 320.294 37.11L319.097 36.697C318.677 37.558 317.921 38.027 316.927 38.027C315.534 38.027 314.722 37.138 314.624 35.57ZM316.969 32.35C318.25 32.35 318.971 33.085 319.125 34.569H314.645C314.82 33.134 315.611 32.35 316.969 32.35ZM321.971 39H323.238V35.36L326.675 39H328.418L324.687 35.22L328.026 31.44H326.409L323.238 35.08V28.92H321.978L321.971 39Z" fill="#0D0E10"/>
<path d="M349 31L343 37L337 31" stroke="#0D0E10" stroke-width="1.25" stroke-linecap="round" stroke-linejoin="round"/>
<rect x="280.5" y="20.5" width="80" height="27" rx="5.5" stroke="#0D0E10" stroke-opacity="0.2"/>
<path d="M49.12 390H50.544V384.952H54.88V383.528H50.544V379.904H55.84V378.48H49.12V390ZM63.6038 382.808C63.1078 381.68 61.9318 381.12 60.3718 381.12C58.4198 381.12 57.2118 382.04 56.8038 383.552L58.1558 383.96C58.4678 382.904 59.3078 382.448 60.3558 382.448C61.8518 382.448 62.4438 383.104 62.4838 384.48C61.2038 384.656 59.6838 384.84 58.6038 385.128C57.2918 385.512 56.4838 386.304 56.4838 387.664C56.4838 389.056 57.4838 390.24 59.4198 390.24C60.8598 390.24 61.9318 389.712 62.6198 388.656V390H63.8837V384.656C63.8837 383.976 63.8438 383.344 63.6038 382.808ZM59.6358 389.048C58.4038 389.048 57.8997 388.368 57.8997 387.656C57.8997 386.848 58.5318 386.456 59.2438 386.232C60.0838 385.992 61.2518 385.856 62.4678 385.696C62.4598 386.088 62.4438 386.64 62.3238 387.056C62.1158 388.128 61.1718 389.048 59.6358 389.048ZM69.6038 390.24C71.3878 390.24 72.6918 389.368 73.2998 387.752L71.8598 387.376C71.4678 388.36 70.7238 388.888 69.6038 388.888C67.8838 388.888 67.0118 387.608 66.9958 385.68C67.0118 383.808 67.8278 382.472 69.6038 382.472C70.6518 382.472 71.5238 383.056 71.8918 384.056L73.2998 383.632C72.8438 382.08 71.4358 381.12 69.6198 381.12C67.0198 381.12 65.5078 382.984 65.4838 385.68C65.5078 388.328 66.9718 390.24 69.6038 390.24ZM75.7461 386.08H82.3701C82.4981 383.008 80.9781 381.12 78.3781 381.12C75.8661 381.12 74.2181 382.904 74.2181 385.736C74.2181 388.44 75.8901 390.24 78.4421 390.24C80.1141 390.24 81.5461 389.368 82.2261 387.84L80.8581 387.368C80.3781 388.352 79.5141 388.888 78.3781 388.888C76.7861 388.888 75.8581 387.872 75.7461 386.08ZM78.4261 382.4C79.8901 382.4 80.7141 383.24 80.8901 384.936H75.7701C75.9701 383.296 76.8741 382.4 78.4261 382.4ZM88.1273 381.12C87.0473 381.12 86.1913 381.496 85.5753 382.144V378.48H84.1433V390H85.4153V389.024C86.0473 389.784 86.9513 390.24 88.1193 390.24C90.5353 390.24 91.9913 388.264 91.9913 385.672C91.9913 383.08 90.5273 381.12 88.1273 381.12ZM87.9433 388.936C86.1993 388.936 85.4153 387.568 85.4153 385.672C85.4153 383.76 86.2153 382.424 87.9033 382.424C89.6633 382.424 90.4793 383.848 90.4793 385.672C90.4793 387.512 89.6473 388.936 87.9433 388.936ZM97.425 390.24C99.993 390.24 101.593 388.384 101.593 385.672C101.593 383 100.017 381.12 97.425 381.12C94.889 381.12 93.265 382.96 93.265 385.672C93.265 388.352 94.841 390.24 97.425 390.24ZM97.425 388.888C95.681 388.888 94.777 387.624 94.777 385.672C94.777 383.784 95.617 382.472 97.425 382.472C99.193 382.472 100.081 383.728 100.081 385.672C100.081 387.576 99.209 388.888 97.425 388.888ZM107.034 390.24C109.602 390.24 111.202 388.384 111.202 385.672C111.202 383 109.626 381.12 107.034 381.12C104.498 381.12 102.874 382.96 102.874 385.672C102.874 388.352 104.45 390.24 107.034 390.24ZM107.034 388.888C105.29 388.888 104.386 387.624 104.386 385.672C104.386 383.784 105.226 382.472 107.034 382.472C108.802 382.472 109.69 383.728 109.69 385.672C109.69 387.576 108.818 388.888 107.034 388.888ZM112.956 390H114.404V385.84L118.332 390H120.324L116.06 385.68L119.876 381.36H118.028L114.404 385.52V378.48H112.964L112.956 390Z" fill="#0D0E10" fill-opacity="0.6"/>
<path d="M148.69 390H150.13V387.88H151.33V386.528H150.13V383.288H148.69V386.528H145.01L148.81 378.48H147.194L143.394 386.528V387.88H148.69V390ZM159.109 383.832C159.925 383.264 160.325 382.392 160.325 381.392C160.325 379.448 158.877 378.24 156.845 378.24C154.813 378.24 153.365 379.448 153.365 381.392C153.365 382.384 153.789 383.264 154.589 383.824C153.581 384.472 153.085 385.512 153.085 386.712C153.085 388.824 154.637 390.24 156.845 390.24C159.053 390.24 160.621 388.824 160.621 386.712C160.621 385.512 160.109 384.464 159.109 383.832ZM156.845 379.616C158.013 379.616 158.813 380.208 158.813 381.392C158.813 382.576 158.013 383.168 156.845 383.168C155.677 383.168 154.877 382.576 154.877 381.392C154.877 380.208 155.677 379.616 156.845 379.616ZM156.845 388.88C155.501 388.88 154.589 388.12 154.589 386.712C154.589 385.296 155.485 384.536 156.845 384.536C158.205 384.536 159.109 385.296 159.109 386.712C159.109 388.12 158.189 388.88 156.845 388.88ZM165.418 384C167.002 384 168.298 382.72 168.298 381.12C168.298 379.52 167.002 378.24 165.418 378.24C163.882 378.24 162.538 379.552 162.538 381.12C162.538 382.72 163.834 384 165.418 384ZM163.978 390L174.554 379.44L173.594 378.48L163.018 389.04L163.978 390ZM165.418 382.744C164.538 382.744 163.794 382 163.794 381.12C163.794 380.24 164.538 379.496 165.418 379.496C166.298 379.496 167.042 380.24 167.042 381.12C167.042 382 166.298 382.744 165.418 382.744ZM172.154 390.24C173.738 390.24 175.034 388.96 175.034 387.36C175.034 385.76 173.738 384.48 172.154 384.48C170.618 384.48 169.274 385.792 169.274 387.36C169.274 388.96 170.57 390.24 172.154 390.24ZM172.154 388.984C171.274 388.984 170.53 388.24 170.53 387.36C170.53 386.48 171.274 385.736 172.154 385.736C173.034 385.736 173.778 386.48 173.778 387.36C173.778 388.24 173.034 388.984 172.154 388.984Z" fill="#0D0E10" fill-opacity="0.6"/>
<rect x="24" y="378" width="12" height="12" rx="6" fill="#B16CEA"/>
<path d="M236.088 390H237.512V379.832H241.44V378.48H232.16V379.832H236.088V390ZM243.601 390H244.785L246.873 383.432L248.961 390H250.145L252.785 381.36H251.377L249.441 387.68L247.505 381.36H246.249L244.305 387.68L242.377 381.36L240.961 381.352L243.601 390ZM254.389 379.832H255.813V378.36H254.389V379.832ZM254.389 390H255.813V381.36H254.389V390ZM266.054 382.536H268.662V381.36H266.054V378.96H264.63V381.36H260.43V378.96H259.006V381.36H257.254V382.536H259.006V386.736C259.006 387.632 258.958 388.288 259.302 388.96C259.902 390.136 261.494 390.312 263.038 390V388.776C261.854 388.96 260.99 388.912 260.606 388.224C260.398 387.864 260.43 387.384 260.43 386.672V382.536H264.63V386.736C264.63 387.632 264.582 388.288 264.926 388.96C265.526 390.136 267.118 390.312 268.662 390V388.776C267.478 388.96 266.614 388.912 266.23 388.224C266.022 387.864 266.054 387.384 266.054 386.672V382.536ZM271.465 386.08H278.089C278.217 383.008 276.697 381.12 274.097 381.12C271.585 381.12 269.937 382.904 269.937 385.736C269.937 388.44 271.609 390.24 274.161 390.24C275.833 390.24 277.265 389.368 277.945 387.84L276.577 387.368C276.097 388.352 275.233 388.888 274.097 388.888C272.505 388.888 271.577 387.872 271.465 386.08ZM274.145 382.4C275.609 382.4 276.433 383.24 276.609 384.936H271.489C271.689 383.296 272.593 382.4 274.145 382.4ZM281.878 381.888C281.59 382.096 281.334 382.392 281.142 382.728V381.36H279.87V390H281.302V385.664C281.302 384.64 281.51 383.624 282.35 383.024C282.95 382.584 283.726 382.544 284.326 382.696V381.36C283.558 381.192 282.542 381.352 281.878 381.888Z" fill="#0D0E10" fill-opacity="0.6"/>
<path d="M332.104 382.832L335.216 379.848V378.48H328.424V379.84H333.448L329.704 383.224L330.392 384.352C330.752 384.168 331.192 384.048 331.584 384.048C332.968 384.048 333.904 385.032 333.904 386.456C333.904 387.864 333 388.84 331.6 388.864C330.576 388.88 329.68 388.312 329.336 387.24L327.968 387.632C328.456 389.232 329.896 390.224 331.608 390.224C333.744 390.224 335.368 388.664 335.368 386.456C335.368 384.44 334.088 382.944 332.104 382.832ZM343.032 385.296C344.216 384.248 344.784 383.488 344.784 381.976C344.784 379.856 343.168 378.24 341.032 378.24C338.816 378.24 337.184 379.784 337.184 381.952H338.64C338.624 380.696 339.632 379.6 341.008 379.6C342.336 379.6 343.328 380.632 343.328 381.96C343.328 382.688 343.096 383.352 342.248 384.112L337.136 388.712L337.128 389.992H344.784V388.632H339.32L343.032 385.296ZM349.418 384C351.002 384 352.298 382.72 352.298 381.12C352.298 379.52 351.002 378.24 349.418 378.24C347.882 378.24 346.538 379.552 346.538 381.12C346.538 382.72 347.834 384 349.418 384ZM347.978 390L358.554 379.44L357.594 378.48L347.018 389.04L347.978 390ZM349.418 382.744C348.538 382.744 347.794 382 347.794 381.12C347.794 380.24 348.538 379.496 349.418 379.496C350.298 379.496 351.042 380.24 351.042 381.12C351.042 382 350.298 382.744 349.418 382.744ZM356.154 390.24C357.738 390.24 359.034 388.96 359.034 387.36C359.034 385.76 357.738 384.48 356.154 384.48C354.618 384.48 353.274 385.792 353.274 387.36C353.274 388.96 354.57 390.24 356.154 390.24ZM356.154 388.984C355.274 388.984 354.53 388.24 354.53 387.36C354.53 386.48 355.274 385.736 356.154 385.736C357.034 385.736 357.778 386.48 357.778 387.36C357.778 388.24 357.034 388.984 356.154 388.984Z" fill="#0D0E10" fill-opacity="0.6"/>
<rect x="208" y="378" width="12" height="12" rx="6" fill="#EADAFF"/>
<path d="M49.28 426H50.704V414.48H49.28V426ZM57.2564 417.136C56.0084 417.136 55.0164 417.616 54.3764 418.472V417.36H53.0964V426H54.5364V421.448C54.5364 419.448 55.4804 418.488 56.9124 418.488C58.7364 418.488 59.2564 420.048 59.2564 421.672V426H60.6964V421.224C60.6964 419.584 60.0404 417.136 57.2564 417.136ZM66.0403 426.232C68.1923 426.232 69.4963 425.224 69.4963 423.552C69.4963 422.216 68.7523 421.576 66.4723 420.992C64.4403 420.48 64.0003 420.208 64.0003 419.576C64.0003 418.84 64.7683 418.36 65.8883 418.392C67.0643 418.424 67.8643 418.992 68.0083 419.912L69.4643 419.648C69.2803 418.128 67.8563 417.12 65.8883 417.12C63.8963 417.12 62.5683 418.128 62.5683 419.648C62.5683 420.888 63.2963 421.48 65.5843 422.088C67.6963 422.656 68.0243 422.864 68.0243 423.592C68.0243 424.44 67.3043 424.96 66.1283 424.96C64.8803 424.96 63.9843 424.376 63.7523 423.432L62.2963 423.664C62.5923 425.288 63.9763 426.232 66.0403 426.232ZM73.4766 418.536H76.0846V417.36H73.4766V414.96H72.0526V417.36H70.3006V418.536H72.0526V422.736C72.0526 423.632 72.0046 424.288 72.3486 424.96C72.9486 426.136 74.5406 426.312 76.0846 426V424.776C74.9006 424.96 74.0366 424.912 73.6526 424.224C73.4446 423.864 73.4766 423.384 73.4766 422.672V418.536ZM84.4788 418.808C83.9828 417.68 82.8068 417.12 81.2468 417.12C79.2948 417.12 78.0868 418.04 77.6788 419.552L79.0308 419.96C79.3428 418.904 80.1828 418.448 81.2308 418.448C82.7268 418.448 83.3188 419.104 83.3588 420.48C82.0788 420.656 80.5588 420.84 79.4788 421.128C78.1668 421.512 77.3588 422.304 77.3588 423.664C77.3588 425.056 78.3588 426.24 80.2948 426.24C81.7348 426.24 82.8068 425.712 83.4948 424.656V426H84.7587V420.656C84.7587 419.976 84.7188 419.344 84.4788 418.808ZM80.5108 425.048C79.2788 425.048 78.7747 424.368 78.7747 423.656C78.7747 422.848 79.4068 422.456 80.1188 422.232C80.9588 421.992 82.1268 421.856 83.3428 421.696C83.3348 422.088 83.3188 422.64 83.1988 423.056C82.9908 424.128 82.0468 425.048 80.5108 425.048ZM92.9348 417.36V418.328C92.3028 417.568 91.3988 417.12 90.2228 417.12C87.8228 417.12 86.3588 419.08 86.3588 421.672C86.3588 424.264 87.8148 426.24 90.2308 426.24C91.2948 426.24 92.1508 425.856 92.7668 425.208V426.04C92.7828 427.8 91.9908 428.704 90.3428 428.704C89.5028 428.704 88.6468 428.344 88.2228 427.496L86.9188 428.184C87.6388 429.472 88.9748 430.08 90.3348 430.08C92.3988 430.08 93.7587 429.224 94.0948 427.384C94.1748 426.96 94.1988 426.536 94.1988 426.056V417.36H92.9348ZM90.4068 424.936C88.7028 424.936 87.8708 423.512 87.8708 421.672C87.8708 419.848 88.6868 418.424 90.4468 418.424C92.1348 418.424 92.9348 419.76 92.9348 421.672C92.9348 423.568 92.1508 424.936 90.4068 424.936ZM98.4405 417.888C98.1525 418.096 97.8965 418.392 97.7045 418.728V417.36H96.4325V426H97.8645V421.664C97.8645 420.64 98.0725 419.624 98.9125 419.024C99.5125 418.584 100.289 418.544 100.889 418.696V417.36C100.121 417.192 99.1045 417.352 98.4405 417.888ZM108.76 418.808C108.264 417.68 107.088 417.12 105.528 417.12C103.576 417.12 102.368 418.04 101.96 419.552L103.312 419.96C103.624 418.904 104.464 418.448 105.512 418.448C107.008 418.448 107.6 419.104 107.64 420.48C106.36 420.656 104.84 420.84 103.76 421.128C102.448 421.512 101.64 422.304 101.64 423.664C101.64 425.056 102.64 426.24 104.576 426.24C106.016 426.24 107.088 425.712 107.776 424.656V426H109.04V420.656C109.04 419.976 109 419.344 108.76 418.808ZM104.792 425.048C103.56 425.048 103.056 424.368 103.056 423.656C103.056 422.848 103.688 422.456 104.4 422.232C105.24 421.992 106.408 421.856 107.624 421.696C107.616 422.088 107.6 422.64 107.48 423.056C107.272 424.128 106.328 425.048 104.792 425.048ZM119.976 417.136C118.84 417.136 117.872 417.672 117.36 418.56C116.896 417.656 116.008 417.136 114.84 417.136C113.808 417.136 112.928 417.576 112.384 418.28V417.36H111.112V426H112.544V420.512C112.544 419.248 113.296 418.408 114.424 418.408C115.552 418.408 116.296 419.216 116.296 420.528L116.288 426H117.704L117.712 420.512C117.712 419.056 118.632 418.408 119.6 418.408C120.688 418.408 121.456 419.184 121.456 420.472L121.448 426H122.872L122.88 420.16C122.88 418.32 121.776 417.136 119.976 417.136Z" fill="#0D0E10" fill-opacity="0.6"/>
<path d="M148.269 426H149.717V414.48H148.269L146.101 415.776V417.368L148.269 416.056V426ZM156.857 418.584C155.825 418.584 154.873 419.04 154.209 419.776V418.208C154.209 416.832 155.289 415.6 156.817 415.6C157.665 415.6 158.441 416.032 158.905 416.696L159.969 415.752C159.217 414.784 158.081 414.248 156.817 414.248C154.457 414.248 152.761 415.952 152.761 418.368V422.2C152.761 424.512 154.489 426.24 156.689 426.24C158.833 426.24 160.617 424.528 160.617 422.384C160.617 420.24 159.001 418.584 156.857 418.584ZM156.689 424.864C155.313 424.864 154.209 423.744 154.209 422.384C154.209 421.008 155.321 419.896 156.697 419.896C158.073 419.896 159.177 421.008 159.177 422.384C159.177 423.76 158.065 424.864 156.689 424.864ZM165.418 420C167.002 420 168.298 418.72 168.298 417.12C168.298 415.52 167.002 414.24 165.418 414.24C163.882 414.24 162.538 415.552 162.538 417.12C162.538 418.72 163.834 420 165.418 420ZM163.978 426L174.554 415.44L173.594 414.48L163.018 425.04L163.978 426ZM165.418 418.744C164.538 418.744 163.794 418 163.794 417.12C163.794 416.24 164.538 415.496 165.418 415.496C166.298 415.496 167.042 416.24 167.042 417.12C167.042 418 166.298 418.744 165.418 418.744ZM172.154 426.24C173.738 426.24 175.034 424.96 175.034 423.36C175.034 421.76 173.738 420.48 172.154 420.48C170.618 420.48 169.274 421.792 169.274 423.36C169.274 424.96 170.57 426.24 172.154 426.24ZM172.154 424.984C171.274 424.984 170.53 424.24 170.53 423.36C170.53 422.48 171.274 421.736 172.154 421.736C173.034 421.736 173.778 422.48 173.778 423.36C173.778 424.24 173.034 424.984 172.154 424.984Z" fill="#0D0E10" fill-opacity="0.6"/>
<rect x="24" y="414" width="12" height="12" rx="6" fill="#0D0E10"/>
<path d="M235.88 426H237.32V421.208L241.192 414.48H239.536L236.6 419.576L233.656 414.48H232L235.88 421.208V426ZM244.706 426.24C247.274 426.24 248.874 424.384 248.874 421.672C248.874 419 247.298 417.12 244.706 417.12C242.17 417.12 240.546 418.96 240.546 421.672C240.546 424.352 242.122 426.24 244.706 426.24ZM244.706 424.888C242.962 424.888 242.058 423.624 242.058 421.672C242.058 419.784 242.898 418.472 244.706 418.472C246.474 418.472 247.362 419.728 247.362 421.672C247.362 423.576 246.49 424.888 244.706 424.888ZM256.636 417.36V421.912C256.636 423.912 255.692 424.872 254.26 424.872C252.436 424.872 251.916 423.312 251.916 421.688V417.36H250.476V422.136C250.476 423.776 251.132 426.224 253.916 426.224C255.164 426.224 256.156 425.744 256.796 424.888V426H258.068V417.36H256.636ZM262.524 418.536H265.132V417.36H262.524V414.96H261.1V417.36H259.348V418.536H261.1V422.736C261.1 423.632 261.052 424.288 261.396 424.96C261.996 426.136 263.588 426.312 265.132 426V424.776C263.948 424.96 263.084 424.912 262.7 424.224C262.492 423.864 262.524 423.384 262.524 422.672V418.536ZM272.886 417.36V421.912C272.886 423.912 271.942 424.872 270.51 424.872C268.686 424.872 268.166 423.312 268.166 421.688V417.36H266.726V422.136C266.726 423.776 267.382 426.224 270.166 426.224C271.414 426.224 272.406 425.744 273.046 424.888V426H274.318V417.36H272.886ZM280.534 417.12C279.454 417.12 278.598 417.496 277.982 418.144V414.48H276.55V426H277.822V425.024C278.454 425.784 279.358 426.24 280.526 426.24C282.942 426.24 284.398 424.264 284.398 421.672C284.398 419.08 282.934 417.12 280.534 417.12ZM280.35 424.936C278.606 424.936 277.822 423.568 277.822 421.672C277.822 419.76 278.622 418.424 280.31 418.424C282.07 418.424 282.886 419.848 282.886 421.672C282.886 423.512 282.054 424.936 280.35 424.936ZM287.199 422.08H293.823C293.951 419.008 292.431 417.12 289.831 417.12C287.319 417.12 285.671 418.904 285.671 421.736C285.671 424.44 287.343 426.24 289.895 426.24C291.567 426.24 292.999 425.368 293.679 423.84L292.311 423.368C291.831 424.352 290.967 424.888 289.831 424.888C288.239 424.888 287.311 423.872 287.199 422.08ZM289.879 418.4C291.343 418.4 292.167 419.24 292.343 420.936H287.223C287.423 419.296 288.327 418.4 289.879 418.4Z" fill="#0D0E10" fill-opacity="0.6"/>
<path d="M342.143 426H343.583V423.88H344.783V422.528H343.583V419.288H342.143V422.528H338.463L342.263 414.48H340.647L336.847 422.528V423.88H342.143V426ZM349.418 420C351.002 420 352.298 418.72 352.298 417.12C352.298 415.52 351.002 414.24 349.418 414.24C347.882 414.24 346.538 415.552 346.538 417.12C346.538 418.72 347.834 420 349.418 420ZM347.978 426L358.554 415.44L357.594 414.48L347.018 425.04L347.978 426ZM349.418 418.744C348.538 418.744 347.794 418 347.794 417.12C347.794 416.24 348.538 415.496 349.418 415.496C350.298 415.496 351.042 416.24 351.042 417.12C351.042 418 350.298 418.744 349.418 418.744ZM356.154 426.24C357.738 426.24 359.034 424.96 359.034 423.36C359.034 421.76 357.738 420.48 356.154 420.48C354.618 420.48 353.274 421.792 353.274 423.36C353.274 424.96 354.57 426.24 356.154 426.24ZM356.154 424.984C355.274 424.984 354.53 424.24 354.53 423.36C354.53 422.48 355.274 421.736 356.154 421.736C357.034 421.736 357.778 422.48 357.778 423.36C357.778 424.24 357.034 424.984 356.154 424.984Z" fill="#0D0E10" fill-opacity="0.6"/>
<rect x="208" y="414" width="12" height="12" rx="6" fill="#6E6E70"/>
<mask id="path-18-inside-1_1401_1997" fill="white">
<path d="M206.275 100.913C221.406 102.858 235.98 107.873 249.103 115.651C262.227 123.429 273.623 133.806 282.593 146.145L242.732 175.121C237.709 168.211 231.327 162.4 223.978 158.044C216.629 153.689 208.467 150.88 199.994 149.792L206.275 100.913Z"/>
</mask>
<path d="M206.275 100.913C221.406 102.858 235.98 107.873 249.103 115.651C262.227 123.429 273.623 133.806 282.593 146.145L242.732 175.121C237.709 168.211 231.327 162.4 223.978 158.044C216.629 153.689 208.467 150.88 199.994 149.792L206.275 100.913Z" fill="#6E6E70" stroke="white" stroke-width="4" mask="url(#path-18-inside-1_1401_1997)"/>
<mask id="path-19-inside-2_1401_1997" fill="white">
<path d="M106.271 284.073C91.4458 266.439 82.4192 244.662 80.4217 221.71C78.4243 198.759 83.5533 175.75 95.1095 155.82C106.666 135.89 124.087 120.008 144.998 110.34C165.91 100.671 189.294 97.6871 211.963 101.793L203.179 150.284C190.484 147.985 177.389 149.656 165.679 155.07C153.969 160.484 144.213 169.378 137.741 180.539C131.27 191.7 128.398 204.585 129.516 217.438C130.635 230.291 135.69 242.486 143.992 252.361L106.271 284.073Z"/>
</mask>
<path d="M106.271 284.073C91.4458 266.439 82.4192 244.662 80.4217 221.71C78.4243 198.759 83.5533 175.75 95.1095 155.82C106.666 135.89 124.087 120.008 144.998 110.34C165.91 100.671 189.294 97.6871 211.963 101.793L203.179 150.284C190.484 147.985 177.389 149.656 165.679 155.07C153.969 160.484 144.213 169.378 137.741 180.539C131.27 191.7 128.398 204.585 129.516 217.438C130.635 230.291 135.69 242.486 143.992 252.361L106.271 284.073Z" fill="#B16CEA" stroke="white" stroke-width="4" mask="url(#path-19-inside-2_1401_1997)"/>
<mask id="path-20-inside-3_1401_1997" fill="white">
<path d="M269.064 130.728C280.368 141.447 289.312 154.407 295.324 168.779C301.336 183.15 304.284 198.619 303.979 214.194C303.673 229.77 300.122 245.111 293.552 259.236C286.981 273.362 277.536 285.961 265.82 296.229C254.105 306.497 240.375 314.208 225.51 318.869C210.645 323.53 194.971 325.039 179.49 323.299C164.009 321.559 149.061 316.608 135.601 308.764C122.142 300.919 110.467 290.352 101.323 277.74L141.221 248.814C146.342 255.877 152.88 261.795 160.417 266.188C167.954 270.581 176.325 273.353 184.994 274.328C193.664 275.302 202.441 274.457 210.766 271.847C219.09 269.237 226.779 264.918 233.339 259.168C239.9 253.418 245.19 246.363 248.869 238.452C252.548 230.542 254.537 221.951 254.708 213.229C254.879 204.506 253.228 195.844 249.862 187.796C246.495 179.748 241.486 172.49 235.156 166.487L269.064 130.728Z"/>
</mask>
<path d="M269.064 130.728C280.368 141.447 289.312 154.407 295.324 168.779C301.336 183.15 304.284 198.619 303.979 214.194C303.673 229.77 300.122 245.111 293.552 259.236C286.981 273.362 277.536 285.961 265.82 296.229C254.105 306.497 240.375 314.208 225.51 318.869C210.645 323.53 194.971 325.039 179.49 323.299C164.009 321.559 149.061 316.608 135.601 308.764C122.142 300.919 110.467 290.352 101.323 277.74L141.221 248.814C146.342 255.877 152.88 261.795 160.417 266.188C167.954 270.581 176.325 273.353 184.994 274.328C193.664 275.302 202.441 274.457 210.766 271.847C219.09 269.237 226.779 264.918 233.339 259.168C239.9 253.418 245.19 246.363 248.869 238.452C252.548 230.542 254.537 221.951 254.708 213.229C254.879 204.506 253.228 195.844 249.862 187.796C246.495 179.748 241.486 172.49 235.156 166.487L269.064 130.728Z" fill="#EADAFF" stroke="white" stroke-width="4" mask="url(#path-20-inside-3_1401_1997)"/>
<mask id="path-21-inside-4_1401_1997" fill="white">
<path d="M269.064 130.728C288.552 149.207 300.751 174.073 303.438 200.795C306.125 227.516 299.12 254.314 283.701 276.303L243.353 248.01C251.987 235.696 255.91 220.689 254.405 205.725C252.901 190.761 246.069 176.836 235.156 166.487L269.064 130.728Z"/>
</mask>
<path d="M269.064 130.728C288.552 149.207 300.751 174.073 303.438 200.795C306.125 227.516 299.12 254.314 283.701 276.303L243.353 248.01C251.987 235.696 255.91 220.689 254.405 205.725C252.901 190.761 246.069 176.836 235.156 166.487L269.064 130.728Z" fill="#0D0E10" stroke="white" stroke-width="4" mask="url(#path-21-inside-4_1401_1997)"/>
<path d="M25.4 42H27.81V36H32.87V33.6H27.81V30.01H34.07V27.6H25.4V42ZM40.3458 42.3C43.5758 42.3 45.7358 39.97 45.7358 36.6C45.7358 33.26 43.6058 30.9 40.3458 30.9C37.1558 30.9 34.9758 33.21 34.9758 36.6C34.9758 39.94 37.0958 42.3 40.3458 42.3ZM40.3458 40.04C38.4858 40.04 37.5258 38.7 37.5258 36.6C37.5258 34.56 38.4058 33.16 40.3458 33.16C42.2358 33.16 43.1858 34.51 43.1858 36.6C43.1858 38.63 42.2558 40.04 40.3458 40.04ZM48.1391 42H50.5491V27.3H48.1391V42ZM53.7445 42H56.1545V27.3H53.7445V42ZM63.92 42.3C67.15 42.3 69.31 39.97 69.31 36.6C69.31 33.26 67.18 30.9 63.92 30.9C60.73 30.9 58.55 33.21 58.55 36.6C58.55 39.94 60.67 42.3 63.92 42.3ZM63.92 40.04C62.06 40.04 61.1 38.7 61.1 36.6C61.1 34.56 61.98 33.16 63.92 33.16C65.81 33.16 66.76 34.51 66.76 36.6C66.76 38.63 65.83 40.04 63.92 40.04ZM73.4227 42H75.3027L77.7427 34.57L80.1927 42H82.0727L85.3727 31.2H83.0127L80.8927 38.13L78.7627 31.2H76.7327L74.5927 38.13L72.4827 31.2L70.1227 31.18L73.4227 42ZM88.7667 37.27H96.5867C96.8667 33.38 94.9067 30.9 91.5567 30.9C88.3767 30.9 86.1867 33.18 86.1867 36.72C86.1867 40 88.4167 42.3 91.6967 42.3C93.7767 42.3 95.6367 41.18 96.4667 39.22L94.0867 38.5C93.6167 39.5 92.7367 40.04 91.5567 40.04C89.9167 40.04 88.9567 39.05 88.7667 37.27ZM91.6567 33.01C93.1467 33.01 93.9367 33.76 94.1367 35.45H88.8267C89.1067 33.85 90.0367 33.01 91.6567 33.01ZM102.028 31.77C101.578 32.05 101.218 32.46 100.948 32.93V31.2H98.818V42H101.238V36.51C101.238 35.26 101.678 34.25 102.668 33.71C103.338 33.32 104.248 33.27 104.898 33.45V31.2C103.928 31.05 102.828 31.22 102.028 31.77ZM110.586 42.3C113.366 42.3 115.046 40.98 115.046 38.81C115.046 37.13 114.106 36.28 111.516 35.61C108.986 34.97 108.566 34.73 108.566 34.1C108.566 33.38 109.326 32.94 110.456 32.99C111.626 33.06 112.376 33.61 112.506 34.53L114.966 34.09C114.696 32.15 112.936 30.9 110.416 30.9C107.846 30.9 106.166 32.2 106.166 34.22C106.166 35.84 107.116 36.65 109.826 37.36C112.266 38.01 112.576 38.19 112.576 38.92C112.576 39.72 111.906 40.21 110.756 40.21C109.436 40.21 108.516 39.56 108.276 38.49L105.816 38.87C106.176 41.05 107.916 42.3 110.586 42.3Z" fill="#0D0E10"/>
</svg>
