<svg width="362" height="186" viewBox="0 0 362 186" fill="none" xmlns="http://www.w3.org/2000/svg">
<rect width="361.29" height="185.161" rx="11.2903" fill="white"/>
<path d="M27.3913 33.1445H25.746V21.643H28.444L32.9822 32.3414L32.7795 32.4194V21.643H34.4326V33.1445H31.6956L27.173 22.4618L27.3913 22.3916V33.1445ZM37.1989 29.5966V28.2788H43.2967L43.0628 28.6687C43.0628 28.6375 43.0628 28.6063 43.0628 28.5751C43.0628 28.5387 43.0628 28.5075 43.0628 28.4815C43.0628 28.0605 42.9718 27.6732 42.7898 27.3197C42.6079 26.961 42.335 26.6751 41.9711 26.462C41.6124 26.2436 41.1627 26.1345 40.6221 26.1345C40.0815 26.1345 39.6058 26.2514 39.1951 26.4854C38.7897 26.7141 38.4725 27.0416 38.2438 27.4679C38.0203 27.8889 37.9085 28.3958 37.9085 28.9884C37.9085 29.5914 38.0177 30.1113 38.236 30.5479C38.4544 30.9794 38.7689 31.3121 39.1795 31.546C39.5902 31.7799 40.0815 31.8969 40.6533 31.8969C41.0536 31.8969 41.3993 31.8579 41.6904 31.7799C41.9867 31.6968 42.2284 31.5876 42.4156 31.4524C42.6079 31.3173 42.7535 31.1717 42.8522 31.0158C42.951 30.8546 43.0082 30.6961 43.0238 30.5401H44.7081C44.6769 30.878 44.5651 31.2133 44.3728 31.546C44.1856 31.8735 43.9179 32.1724 43.5696 32.4427C43.2265 32.7079 42.8054 32.921 42.3064 33.0822C41.8125 33.2381 41.2433 33.3161 40.5987 33.3161C39.7358 33.3161 38.9794 33.1341 38.3296 32.7702C37.6798 32.4064 37.1729 31.9021 36.8091 31.2575C36.4452 30.6077 36.2632 29.8643 36.2632 29.0274C36.2632 28.1748 36.4478 27.4263 36.8169 26.7817C37.1859 26.1371 37.698 25.6354 38.353 25.2767C39.008 24.9128 39.7592 24.7309 40.6065 24.7309C41.4694 24.7309 42.2154 24.9128 42.8444 25.2767C43.4786 25.6406 43.9673 26.1423 44.3104 26.7817C44.6535 27.4211 44.825 28.1566 44.825 28.9884C44.825 29.0872 44.8224 29.2015 44.8172 29.3315C44.812 29.4614 44.8042 29.5498 44.7938 29.5966H37.1989ZM53.1879 33.1445L51.0669 24.8634H52.4393L54.4745 32.5285H54.186L55.5116 24.8634H57.266L55.5194 33.1445H53.1879ZM47.5346 33.1445L45.7801 24.8634H47.5346L48.8758 32.5285H48.5795L50.599 24.8634H51.9714L49.8817 33.1445H47.5346ZM70.7428 28.9338C70.7428 30.4102 70.3815 31.5096 69.6589 32.2322C68.9363 32.9496 67.9382 33.3083 66.6646 33.3083C65.3962 33.3083 64.4007 32.9496 63.6781 32.2322C62.9607 31.5096 62.602 30.4102 62.602 28.9338C62.602 28.7155 62.602 28.4841 62.602 28.2398C62.602 27.9903 62.602 27.7304 62.602 27.4601V21.643H64.2941V27.6472C64.2941 27.8967 64.2941 28.1281 64.2941 28.3412C64.2941 28.5543 64.2941 28.7493 64.2941 28.926C64.2941 29.9657 64.4917 30.7169 64.8867 31.1795C65.2818 31.637 65.8744 31.8657 66.6646 31.8657C67.46 31.8657 68.0552 31.637 68.4503 31.1795C68.8505 30.7169 69.0507 29.9657 69.0507 28.926V21.643H70.7428V28.9338ZM76.1657 33.3083C75.6718 33.3083 75.2066 33.2537 74.7699 33.1445C74.3332 33.0354 73.9485 32.8768 73.6158 32.6689C73.2883 32.4557 73.031 32.1932 72.8439 31.8813C72.6619 31.5694 72.571 31.2081 72.571 30.7974C72.571 30.7611 72.571 30.7247 72.571 30.6883C72.571 30.6467 72.571 30.6129 72.571 30.5869H74.2552C74.2552 30.6129 74.2552 30.6363 74.2552 30.6571C74.2552 30.6779 74.2552 30.7065 74.2552 30.7429C74.2552 31.1223 74.4294 31.4109 74.7777 31.6084C75.1312 31.8007 75.6094 31.8969 76.2124 31.8969C76.5659 31.8969 76.8882 31.8605 77.1794 31.7877C77.4757 31.715 77.7096 31.6032 77.8811 31.4524C78.0579 31.3017 78.1463 31.1093 78.1463 30.8754C78.1463 30.4959 77.9591 30.2256 77.5848 30.0645C77.2157 29.9033 76.6543 29.7604 75.9005 29.6356C75.4899 29.5628 75.0922 29.4692 74.7075 29.3549C74.328 29.2405 73.9849 29.0898 73.6782 28.9026C73.3767 28.7103 73.135 28.4737 72.953 28.193C72.7763 27.9071 72.6879 27.564 72.6879 27.1637C72.6879 26.6439 72.8439 26.202 73.1558 25.8381C73.4677 25.4743 73.8888 25.1987 74.419 25.0116C74.9492 24.8245 75.5341 24.7309 76.1735 24.7309C76.7921 24.7309 77.3639 24.8323 77.8889 25.035C78.4192 25.2325 78.8454 25.521 79.1677 25.9005C79.4901 26.2748 79.6512 26.7349 79.6512 27.2807C79.6512 27.3015 79.6512 27.3249 79.6512 27.3509C79.6512 27.3769 79.6512 27.4003 79.6512 27.4211H77.9747C77.9747 27.4003 77.9747 27.3821 77.9747 27.3665C77.9747 27.3509 77.9747 27.3327 77.9747 27.3119C77.9747 27.0416 77.8889 26.8207 77.7174 26.6491C77.5458 26.4776 77.3223 26.3502 77.0468 26.267C76.7765 26.1786 76.488 26.1345 76.1813 26.1345C75.9005 26.1345 75.6172 26.1656 75.3313 26.228C75.0506 26.2852 74.8167 26.3866 74.6295 26.5321C74.4424 26.6725 74.3488 26.8648 74.3488 27.1092C74.3488 27.3587 74.4398 27.5588 74.6217 27.7096C74.8037 27.8551 75.061 27.9773 75.3937 28.0761C75.7264 28.1696 76.1137 28.2554 76.5555 28.3334C76.961 28.4062 77.3561 28.4997 77.7408 28.6141C78.1255 28.7233 78.4712 28.8688 78.7779 29.0508C79.0898 29.2327 79.3367 29.4666 79.5186 29.7526C79.7058 30.0385 79.7994 30.3894 79.7994 30.8052C79.7994 31.2367 79.7006 31.6084 79.503 31.9203C79.3055 32.2322 79.0352 32.4921 78.6921 32.7001C78.3542 32.9028 77.9669 33.0536 77.5302 33.1523C77.0988 33.2563 76.6439 33.3083 76.1657 33.3083ZM82.2638 29.5966V28.2788H88.3615L88.1276 28.6687C88.1276 28.6375 88.1276 28.6063 88.1276 28.5751C88.1276 28.5387 88.1276 28.5075 88.1276 28.4815C88.1276 28.0605 88.0366 27.6732 87.8547 27.3197C87.6727 26.961 87.3998 26.6751 87.0359 26.462C86.6772 26.2436 86.2276 26.1345 85.6869 26.1345C85.1463 26.1345 84.6706 26.2514 84.26 26.4854C83.8545 26.7141 83.5374 27.0416 83.3087 27.4679C83.0851 27.8889 82.9734 28.3958 82.9734 28.9884C82.9734 29.5914 83.0825 30.1113 83.3009 30.5479C83.5192 30.9794 83.8337 31.3121 84.2444 31.546C84.655 31.7799 85.1463 31.8969 85.7181 31.8969C86.1184 31.8969 86.4641 31.8579 86.7552 31.7799C87.0515 31.6968 87.2932 31.5876 87.4804 31.4524C87.6727 31.3173 87.8183 31.1717 87.9171 31.0158C88.0158 30.8546 88.073 30.6961 88.0886 30.5401H89.7729C89.7417 30.878 89.6299 31.2133 89.4376 31.546C89.2505 31.8735 88.9827 32.1724 88.6344 32.4427C88.2913 32.7079 87.8703 32.921 87.3712 33.0822C86.8774 33.2381 86.3081 33.3161 85.6635 33.3161C84.8006 33.3161 84.0442 33.1341 83.3944 32.7702C82.7446 32.4064 82.2378 31.9021 81.8739 31.2575C81.51 30.6077 81.3281 29.8643 81.3281 29.0274C81.3281 28.1748 81.5126 27.4263 81.8817 26.7817C82.2508 26.1371 82.7628 25.6354 83.4178 25.2767C84.0728 24.9128 84.824 24.7309 85.6713 24.7309C86.5343 24.7309 87.2803 24.9128 87.9093 25.2767C88.5435 25.6406 89.0321 26.1423 89.3752 26.7817C89.7183 27.4211 89.8899 28.1566 89.8899 28.9884C89.8899 29.0872 89.8873 29.2015 89.8821 29.3315C89.8769 29.4614 89.8691 29.5498 89.8587 29.5966H82.2638ZM91.7759 33.1445V24.8634H93.468V27.5068L93.0157 27.3041C93.0521 26.9662 93.1379 26.6439 93.2731 26.3372C93.4082 26.0305 93.5876 25.7576 93.8111 25.5184C94.0398 25.2741 94.3205 25.0818 94.6532 24.9414C94.9859 24.8011 95.3706 24.7309 95.8073 24.7309C96.14 24.7309 96.4077 24.7569 96.6104 24.8089C96.8184 24.8608 96.9457 24.9024 96.9925 24.9336L96.6338 26.5243C96.5819 26.488 96.4753 26.4412 96.3141 26.384C96.1582 26.3268 95.9398 26.2982 95.6591 26.2982C95.2329 26.2982 94.8794 26.3736 94.5987 26.5243C94.3179 26.6751 94.0944 26.8752 93.9281 27.1248C93.7617 27.3743 93.6421 27.6472 93.5694 27.9435C93.5018 28.2346 93.468 28.5283 93.468 28.8246V33.1445H91.7759Z" fill="#7F7F7F"/>
<path d="M224.422 38.2881V36.8611C224.464 36.6688 224.591 36.4348 224.804 36.1593C225.017 35.8786 225.277 35.5797 225.584 35.2626C225.891 34.9455 226.213 34.6284 226.551 34.3113C226.894 33.9942 227.214 33.7031 227.51 33.438C227.874 33.1053 228.23 32.7622 228.578 32.4087C228.927 32.05 229.215 31.6731 229.444 31.278C229.678 30.8777 229.795 30.4567 229.795 30.0148C229.795 29.391 229.646 28.9101 229.35 28.5722C229.059 28.2291 228.615 28.0576 228.017 28.0576C227.539 28.0576 227.156 28.159 226.871 28.3617C226.585 28.5644 226.379 28.8503 226.255 29.2194C226.13 29.5833 226.067 30.0096 226.067 30.4982H224.367C224.367 29.7237 224.503 29.0479 224.773 28.4709C225.048 27.8886 225.459 27.439 226.005 27.1219C226.551 26.7996 227.229 26.6384 228.04 26.6384C228.804 26.6384 229.441 26.784 229.951 27.0751C230.465 27.3662 230.85 27.7665 231.105 28.2759C231.365 28.7854 231.495 29.3702 231.495 30.0304C231.495 30.4671 231.411 30.8855 231.245 31.2858C231.084 31.6809 230.871 32.0526 230.606 32.4009C230.346 32.7492 230.065 33.0715 229.763 33.3678C229.462 33.6641 229.176 33.9318 228.906 34.1709C228.464 34.5556 228.058 34.9195 227.689 35.2626C227.325 35.6005 227.024 35.9072 226.785 36.1827C226.551 36.453 226.408 36.6818 226.356 36.8689H231.526V38.2881H224.422ZM233.545 38.2881V36.8611C233.586 36.6688 233.714 36.4348 233.927 36.1593C234.14 35.8786 234.4 35.5797 234.707 35.2626C235.013 34.9455 235.336 34.6284 235.673 34.3113C236.017 33.9942 236.336 33.7031 236.633 33.438C236.996 33.1053 237.353 32.7622 237.701 32.4087C238.049 32.05 238.338 31.6731 238.566 31.278C238.8 30.8777 238.917 30.4567 238.917 30.0148C238.917 29.391 238.769 28.9101 238.473 28.5722C238.182 28.2291 237.737 28.0576 237.139 28.0576C236.661 28.0576 236.279 28.159 235.993 28.3617C235.707 28.5644 235.502 28.8503 235.377 29.2194C235.252 29.5833 235.19 30.0096 235.19 30.4982H233.49C233.49 29.7237 233.625 29.0479 233.896 28.4709C234.171 27.8886 234.582 27.439 235.128 27.1219C235.673 26.7996 236.352 26.6384 237.163 26.6384C237.927 26.6384 238.564 26.784 239.073 27.0751C239.588 27.3662 239.973 27.7665 240.227 28.2759C240.487 28.7854 240.617 29.3702 240.617 30.0304C240.617 30.4671 240.534 30.8855 240.368 31.2858C240.206 31.6809 239.993 32.0526 239.728 32.4009C239.468 32.7492 239.188 33.0715 238.886 33.3678C238.585 33.6641 238.299 33.9318 238.028 34.1709C237.586 34.5556 237.181 34.9195 236.812 35.2626C236.448 35.6005 236.147 35.9072 235.907 36.1827C235.673 36.453 235.53 36.6818 235.479 36.8689H240.648V38.2881H233.545ZM243.876 38.4986C243.585 38.4986 243.338 38.3999 243.135 38.2023C242.938 38.0048 242.839 37.7604 242.839 37.4693C242.839 37.1834 242.938 36.9417 243.135 36.7442C243.338 36.5414 243.585 36.44 243.876 36.44C244.157 36.44 244.398 36.5414 244.601 36.7442C244.804 36.9417 244.905 37.1834 244.905 37.4693C244.905 37.7604 244.804 38.0048 244.601 38.2023C244.398 38.3999 244.157 38.4986 243.876 38.4986ZM251.745 28.1824V28.1979H246.637V26.7866H253.616V28.1122C253.039 28.5332 252.553 29.0401 252.158 29.6327C251.763 30.2201 251.438 30.8647 251.183 31.5665C250.934 32.2683 250.741 33.0013 250.606 33.7655C250.471 34.5244 250.377 35.2886 250.325 36.058C250.273 36.8273 250.247 37.5707 250.247 38.2881H248.555C248.555 37.5187 248.581 36.7416 248.633 35.9566C248.691 35.1716 248.787 34.4023 248.922 33.6485C249.062 32.8947 249.252 32.1799 249.491 31.5041C249.735 30.8232 250.042 30.1993 250.411 29.6327C250.78 29.0661 251.225 28.5826 251.745 28.1824ZM259.832 28.1824V28.1979H254.724V26.7866H261.703V28.1122C261.126 28.5332 260.64 29.0401 260.245 29.6327C259.85 30.2201 259.525 30.8647 259.27 31.5665C259.021 32.2683 258.828 33.0013 258.693 33.7655C258.558 34.5244 258.464 35.2886 258.412 36.058C258.36 36.8273 258.334 37.5707 258.334 38.2881H256.642C256.642 37.5187 256.668 36.7416 256.72 35.9566C256.778 35.1716 256.874 34.4023 257.009 33.6485C257.149 32.8947 257.339 32.1799 257.578 31.5041C257.822 30.8232 258.129 30.1993 258.498 29.6327C258.867 29.0661 259.312 28.5826 259.832 28.1824ZM271.474 27.504L262.991 37.9138L262.359 37.3836L270.851 26.9659L271.474 27.504ZM264.675 30.7556C264.311 30.7556 263.968 30.6802 263.646 30.5294C263.328 30.3735 263.068 30.1526 262.866 29.8666C262.668 29.5755 262.569 29.2272 262.569 28.8218C262.569 28.4111 262.668 28.0628 262.866 27.7769C263.068 27.4858 263.328 27.2648 263.646 27.1141C263.968 26.9581 264.311 26.8801 264.675 26.8801C265.044 26.8801 265.39 26.9581 265.712 27.1141C266.039 27.2648 266.305 27.4858 266.507 27.7769C266.715 28.0628 266.819 28.4111 266.819 28.8218C266.819 29.2272 266.715 29.5755 266.507 29.8666C266.305 30.1526 266.039 30.3735 265.712 30.5294C265.39 30.6802 265.044 30.7556 264.675 30.7556ZM264.675 30.046C264.888 30.046 265.096 30.0018 265.299 29.9134C265.507 29.8251 265.675 29.6899 265.805 29.508C265.941 29.326 266.008 29.0973 266.008 28.8218C266.008 28.5462 265.941 28.3175 265.805 28.1356C265.675 27.9536 265.507 27.8185 265.299 27.7301C265.096 27.6365 264.888 27.5897 264.675 27.5897C264.462 27.5897 264.254 27.6365 264.051 27.7301C263.853 27.8185 263.69 27.9536 263.56 28.1356C263.435 28.3175 263.373 28.5462 263.373 28.8218C263.373 29.0973 263.435 29.326 263.56 29.508C263.69 29.6899 263.853 29.8251 264.051 29.9134C264.254 30.0018 264.462 30.046 264.675 30.046ZM269.049 38.1477C268.68 38.1477 268.334 38.0724 268.012 37.9216C267.695 37.7656 267.438 37.5421 267.24 37.251C267.043 36.9599 266.944 36.6142 266.944 36.2139C266.944 35.8032 267.043 35.4549 267.24 35.169C267.438 34.8779 267.695 34.6544 268.012 34.4984C268.334 34.3425 268.68 34.2645 269.049 34.2645C269.413 34.2645 269.759 34.3425 270.086 34.4984C270.414 34.6544 270.679 34.8779 270.882 35.169C271.09 35.4549 271.194 35.8032 271.194 36.2139C271.194 36.6142 271.09 36.9599 270.882 37.251C270.679 37.5421 270.414 37.7656 270.086 37.9216C269.759 38.0724 269.413 38.1477 269.049 38.1477ZM269.049 37.4303C269.262 37.4303 269.47 37.3862 269.673 37.2978C269.881 37.2094 270.05 37.0743 270.18 36.8923C270.315 36.7104 270.383 36.4842 270.383 36.2139C270.383 35.9332 270.315 35.7019 270.18 35.5199C270.05 35.338 269.881 35.2028 269.673 35.1144C269.47 35.0261 269.262 34.9819 269.049 34.9819C268.831 34.9819 268.623 35.0261 268.425 35.1144C268.228 35.2028 268.064 35.338 267.934 35.5199C267.809 35.7019 267.747 35.9332 267.747 36.2139C267.747 36.4842 267.809 36.7104 267.934 36.8923C268.064 37.0743 268.228 37.2094 268.425 37.2978C268.623 37.3862 268.831 37.4303 269.049 37.4303ZM276.719 38.2881V30.007H278.388V38.2881H276.719ZM277.561 28.2915C277.27 28.2915 277.018 28.2135 276.805 28.0576C276.597 27.8964 276.493 27.6755 276.493 27.3948C276.493 27.1193 276.597 26.9035 276.805 26.7476C277.018 26.5864 277.27 26.5059 277.561 26.5059C277.847 26.5059 278.094 26.5864 278.302 26.7476C278.515 26.9035 278.622 27.1193 278.622 27.3948C278.622 27.6755 278.515 27.8964 278.302 28.0576C278.094 28.2135 277.847 28.2915 277.561 28.2915ZM286.535 38.2881V34.4672C286.535 34.2437 286.535 34.054 286.535 33.898C286.535 33.7421 286.535 33.5965 286.535 33.4614C286.535 33.0559 286.473 32.6998 286.348 32.3931C286.223 32.0812 286.018 31.8394 285.732 31.6679C285.446 31.4911 285.064 31.4028 284.586 31.4028C284.165 31.4028 283.783 31.5067 283.44 31.7147C283.102 31.9226 282.831 32.2059 282.629 32.5646C282.431 32.9181 282.332 33.321 282.332 33.7733L281.607 33.4146C281.607 32.744 281.766 32.1436 282.083 31.6133C282.4 31.0779 282.824 30.6542 283.354 30.3423C283.889 30.0304 284.474 29.8744 285.108 29.8744C285.763 29.8744 286.322 30.0018 286.785 30.2565C287.253 30.506 287.609 30.8647 287.853 31.3326C288.103 31.7953 288.227 32.3489 288.227 32.9935C288.227 33.2326 288.227 33.4977 288.227 33.7889C288.227 34.08 288.227 34.3607 288.227 34.631V38.2881H286.535ZM280.64 38.2881V30.007H282.332V38.2881H280.64ZM294.373 38.4518C293.541 38.4518 292.795 38.2777 292.135 37.9294C291.48 37.5759 290.962 37.0743 290.583 36.4245C290.209 35.7746 290.021 35.0105 290.021 34.1319C290.021 33.2534 290.209 32.497 290.583 31.8628C290.962 31.2234 291.48 30.7322 292.135 30.3891C292.795 30.046 293.541 29.8744 294.373 29.8744C295.002 29.8744 295.56 29.9706 296.049 30.163C296.538 30.3501 296.951 30.5996 297.289 30.9115C297.627 31.2234 297.884 31.5665 298.061 31.9408C298.238 32.3151 298.326 32.6894 298.326 33.0637C298.326 33.0689 298.326 33.0767 298.326 33.0871C298.326 33.0975 298.326 33.1079 298.326 33.1183H296.649C296.649 33.0923 296.647 33.0637 296.642 33.0325C296.636 32.9961 296.631 32.9623 296.626 32.9311C296.585 32.6244 296.465 32.3515 296.267 32.1124C296.07 31.8732 295.81 31.6835 295.488 31.5431C295.165 31.4028 294.788 31.3326 294.357 31.3326C293.884 31.3326 293.447 31.4366 293.047 31.6445C292.652 31.8472 292.335 32.1565 292.096 32.5724C291.857 32.9883 291.737 33.5081 291.737 34.1319C291.737 34.7558 291.854 35.2808 292.088 35.7071C292.327 36.1281 292.644 36.4478 293.039 36.6662C293.439 36.8845 293.879 36.9937 294.357 36.9937C294.872 36.9937 295.293 36.9157 295.62 36.7597C295.948 36.5986 296.195 36.3855 296.361 36.1203C296.527 35.85 296.623 35.5589 296.649 35.247H298.326C298.326 35.6213 298.24 36.0008 298.069 36.3855C297.897 36.7649 297.645 37.1106 297.312 37.4225C296.98 37.7345 296.566 37.984 296.072 38.1711C295.584 38.3583 295.017 38.4518 294.373 38.4518ZM300.195 38.2881V30.007H301.887V32.6504L301.435 32.4477C301.471 32.1098 301.557 31.7875 301.692 31.4808C301.828 31.174 302.007 30.9011 302.23 30.662C302.459 30.4177 302.74 30.2253 303.073 30.085C303.405 29.9446 303.79 29.8744 304.227 29.8744C304.559 29.8744 304.827 29.9004 305.03 29.9524C305.238 30.0044 305.365 30.046 305.412 30.0772L305.053 31.6679C305.001 31.6315 304.895 31.5847 304.733 31.5275C304.577 31.4704 304.359 31.4418 304.078 31.4418C303.652 31.4418 303.299 31.5171 303.018 31.6679C302.737 31.8186 302.514 32.0188 302.347 32.2683C302.181 32.5178 302.061 32.7908 301.989 33.0871C301.921 33.3782 301.887 33.6719 301.887 33.9682V38.2881H300.195ZM307.223 34.7402V33.4224H313.32L313.086 33.8122C313.086 33.7811 313.086 33.7499 313.086 33.7187C313.086 33.6823 313.086 33.6511 313.086 33.6251C313.086 33.204 312.995 32.8167 312.813 32.4633C312.632 32.1046 312.359 31.8186 311.995 31.6055C311.636 31.3872 311.186 31.278 310.646 31.278C310.105 31.278 309.629 31.395 309.219 31.6289C308.813 31.8576 308.496 32.1851 308.267 32.6114C308.044 33.0325 307.932 33.5393 307.932 34.1319C307.932 34.735 308.041 35.2548 308.26 35.6915C308.478 36.1229 308.793 36.4556 309.203 36.6896C309.614 36.9235 310.105 37.0405 310.677 37.0405C311.077 37.0405 311.423 37.0015 311.714 36.9235C312.01 36.8403 312.252 36.7312 312.439 36.596C312.632 36.4608 312.777 36.3153 312.876 36.1593C312.975 35.9982 313.032 35.8396 313.047 35.6837H314.732C314.701 36.0216 314.589 36.3569 314.396 36.6896C314.209 37.0171 313.942 37.316 313.593 37.5863C313.25 37.8514 312.829 38.0646 312.33 38.2257C311.836 38.3817 311.267 38.4596 310.622 38.4596C309.759 38.4596 309.003 38.2777 308.353 37.9138C307.703 37.5499 307.197 37.0457 306.833 36.4011C306.469 35.7513 306.287 35.0079 306.287 34.1709C306.287 33.3184 306.471 32.5698 306.84 31.9252C307.21 31.2806 307.722 30.779 308.377 30.4203C309.032 30.0564 309.783 29.8744 310.63 29.8744C311.493 29.8744 312.239 30.0564 312.868 30.4203C313.502 30.7842 313.991 31.2858 314.334 31.9252C314.677 32.5646 314.849 33.3002 314.849 34.1319C314.849 34.2307 314.846 34.3451 314.841 34.475C314.836 34.605 314.828 34.6934 314.817 34.7402H307.223ZM319.604 38.4518C318.98 38.4518 318.432 38.3531 317.959 38.1555C317.491 37.958 317.127 37.6747 316.867 37.3056C316.607 36.9365 316.477 36.492 316.477 35.9722C316.477 35.416 316.623 34.9559 316.914 34.592C317.21 34.2281 317.616 33.9474 318.13 33.7499C318.65 33.5471 319.24 33.4146 319.901 33.3522C320.883 33.2534 321.574 33.1572 321.975 33.0637C322.38 32.9701 322.583 32.8167 322.583 32.6036C322.583 32.5984 322.583 32.5932 322.583 32.588C322.583 32.1669 322.404 31.8472 322.045 31.6289C321.686 31.4106 321.174 31.3014 320.509 31.3014C319.807 31.3014 319.264 31.4262 318.879 31.6757C318.5 31.92 318.31 32.3099 318.31 32.8453H316.649C316.649 32.2111 316.813 31.6731 317.14 31.2312C317.473 30.7894 317.93 30.4541 318.513 30.2253C319.095 29.9914 319.763 29.8744 320.517 29.8744C321.208 29.8744 321.837 29.981 322.404 30.1941C322.975 30.4021 323.43 30.714 323.768 31.1299C324.106 31.5457 324.275 32.063 324.275 32.6816C324.275 32.7908 324.275 32.8999 324.275 33.0091C324.275 33.1131 324.275 33.2196 324.275 33.3288V36.635C324.275 36.8273 324.283 37.0145 324.298 37.1964C324.314 37.3732 324.343 37.5317 324.384 37.6721C324.431 37.8332 324.486 37.9658 324.548 38.0698C324.616 38.1737 324.67 38.2465 324.712 38.2881H323.027C322.996 38.2569 322.949 38.1919 322.887 38.0931C322.83 37.9892 322.778 37.8696 322.731 37.7345C322.684 37.6045 322.648 37.4563 322.622 37.29C322.601 37.1184 322.591 36.9339 322.591 36.7364L322.903 36.9547C322.747 37.2562 322.51 37.5187 322.193 37.7423C321.881 37.9658 321.504 38.1399 321.062 38.2647C320.626 38.3895 320.14 38.4518 319.604 38.4518ZM319.955 37.0483C320.439 37.0483 320.878 36.9729 321.273 36.8221C321.673 36.6662 321.993 36.4322 322.232 36.1203C322.471 35.8032 322.591 35.4056 322.591 34.9273V33.5549L322.988 34.0774C322.656 34.2073 322.248 34.3139 321.764 34.3971C321.286 34.475 320.792 34.54 320.283 34.592C319.581 34.6544 319.053 34.7766 318.7 34.9585C318.346 35.1352 318.169 35.4316 318.169 35.8474C318.169 36.2477 318.315 36.5492 318.606 36.752C318.902 36.9495 319.352 37.0483 319.955 37.0483ZM329.589 38.4518C329.095 38.4518 328.63 38.3973 328.193 38.2881C327.756 38.1789 327.372 38.0204 327.039 37.8124C326.712 37.5993 326.454 37.3368 326.267 37.0249C326.085 36.713 325.994 36.3517 325.994 35.941C325.994 35.9046 325.994 35.8682 325.994 35.8318C325.994 35.7902 325.994 35.7565 325.994 35.7305H327.678C327.678 35.7565 327.678 35.7798 327.678 35.8006C327.678 35.8214 327.678 35.85 327.678 35.8864C327.678 36.2659 327.853 36.5544 328.201 36.752C328.554 36.9443 329.033 37.0405 329.636 37.0405C329.989 37.0405 330.311 37.0041 330.603 36.9313C330.899 36.8585 331.133 36.7468 331.304 36.596C331.481 36.4452 331.569 36.2529 331.569 36.019C331.569 35.6395 331.382 35.3692 331.008 35.208C330.639 35.0469 330.078 34.9039 329.324 34.7792C328.913 34.7064 328.515 34.6128 328.131 34.4984C327.751 34.3841 327.408 34.2333 327.101 34.0462C326.8 33.8538 326.558 33.6173 326.376 33.3366C326.2 33.0507 326.111 32.7076 326.111 32.3073C326.111 31.7875 326.267 31.3456 326.579 30.9817C326.891 30.6178 327.312 30.3423 327.842 30.1552C328.372 29.968 328.957 29.8744 329.597 29.8744C330.215 29.8744 330.787 29.9758 331.312 30.1785C331.842 30.3761 332.269 30.6646 332.591 31.0441C332.913 31.4184 333.074 31.8784 333.074 32.4243C333.074 32.4451 333.074 32.4685 333.074 32.4944C333.074 32.5204 333.074 32.5438 333.074 32.5646H331.398C331.398 32.5438 331.398 32.5256 331.398 32.51C331.398 32.4944 331.398 32.4762 331.398 32.4555C331.398 32.1851 331.312 31.9642 331.141 31.7927C330.969 31.6211 330.746 31.4937 330.47 31.4106C330.2 31.3222 329.911 31.278 329.604 31.278C329.324 31.278 329.04 31.3092 328.755 31.3716C328.474 31.4288 328.24 31.5301 328.053 31.6757C327.866 31.8161 327.772 32.0084 327.772 32.2527C327.772 32.5022 327.863 32.7024 328.045 32.8531C328.227 32.9987 328.484 33.1209 328.817 33.2196C329.15 33.3132 329.537 33.399 329.979 33.4769C330.384 33.5497 330.779 33.6433 331.164 33.7577C331.549 33.8668 331.894 34.0124 332.201 34.1943C332.513 34.3763 332.76 34.6102 332.942 34.8961C333.129 35.182 333.223 35.5329 333.223 35.9488C333.223 36.3803 333.124 36.752 332.926 37.0639C332.729 37.3758 332.458 37.6357 332.115 37.8436C331.777 38.0464 331.39 38.1971 330.953 38.2959C330.522 38.3999 330.067 38.4518 329.589 38.4518ZM335.687 34.7402V33.4224H341.785L341.551 33.8122C341.551 33.7811 341.551 33.7499 341.551 33.7187C341.551 33.6823 341.551 33.6511 341.551 33.6251C341.551 33.204 341.46 32.8167 341.278 32.4633C341.096 32.1046 340.823 31.8186 340.459 31.6055C340.1 31.3872 339.651 31.278 339.11 31.278C338.57 31.278 338.094 31.395 337.683 31.6289C337.278 31.8576 336.961 32.1851 336.732 32.6114C336.508 33.0325 336.397 33.5393 336.397 34.1319C336.397 34.735 336.506 35.2548 336.724 35.6915C336.942 36.1229 337.257 36.4556 337.668 36.6896C338.078 36.9235 338.57 37.0405 339.141 37.0405C339.542 37.0405 339.887 37.0015 340.178 36.9235C340.475 36.8403 340.716 36.7312 340.904 36.596C341.096 36.4608 341.242 36.3153 341.34 36.1593C341.439 35.9982 341.496 35.8396 341.512 35.6837H343.196C343.165 36.0216 343.053 36.3569 342.861 36.6896C342.674 37.0171 342.406 37.316 342.058 37.5863C341.715 37.8514 341.293 38.0646 340.794 38.2257C340.301 38.3817 339.731 38.4596 339.087 38.4596C338.224 38.4596 337.467 38.2777 336.818 37.9138C336.168 37.5499 335.661 37.0457 335.297 36.4011C334.933 35.7513 334.751 35.0079 334.751 34.1709C334.751 33.3184 334.936 32.5698 335.305 31.9252C335.674 31.2806 336.186 30.779 336.841 30.4203C337.496 30.0564 338.247 29.8744 339.095 29.8744C339.957 29.8744 340.703 30.0564 341.332 30.4203C341.967 30.7842 342.455 31.2858 342.798 31.9252C343.142 32.5646 343.313 33.3002 343.313 34.1319C343.313 34.2307 343.31 34.3451 343.305 34.475C343.3 34.605 343.292 34.6934 343.282 34.7402H335.687Z" fill="#B16CEA"/>
<path d="M41.2867 51.0794H32.1791L31.3525 57.0836C31.3837 56.9796 31.4929 56.8392 31.68 56.6625C31.8672 56.4857 32.1271 56.309 32.4598 56.1322C32.8029 55.9451 33.224 55.7943 33.723 55.68C34.2325 55.5552 34.8199 55.4928 35.4853 55.4928C37.5647 55.4928 39.145 56.1686 40.2262 57.5202C41.3179 58.8614 41.8637 60.6185 41.8637 62.7914C41.8637 64.5277 41.5622 65.9937 40.9592 67.1893C40.3666 68.3849 39.4881 69.2895 38.3236 69.9029C37.1592 70.5059 35.7088 70.8074 33.9725 70.8074C32.5586 70.8074 31.3577 70.5995 30.37 70.1836C29.3927 69.7573 28.5974 69.1959 27.984 68.4993C27.3809 67.7923 26.9391 67.0125 26.6584 66.16C26.3776 65.2971 26.2373 64.4237 26.2373 63.54C26.2373 63.5192 26.2373 63.5088 26.2373 63.5088C26.2373 63.4984 26.2373 63.488 26.2373 63.4776H31.025C31.025 63.488 31.025 63.4984 31.025 63.5088C31.025 63.5088 31.025 63.5192 31.025 63.54C31.077 64.6525 31.3369 65.5154 31.8048 66.1288C32.2831 66.7422 33.0316 67.0489 34.0505 67.0489C34.7055 67.0489 35.2514 66.8982 35.688 66.5967C36.1351 66.2952 36.4678 65.8377 36.6861 65.2243C36.9045 64.6005 37.0136 63.8259 37.0136 62.9006C37.0136 61.653 36.7953 60.6861 36.3586 59.9999C35.922 59.3033 35.2202 58.955 34.2533 58.955C33.6814 58.955 33.1772 59.0642 32.7405 59.2825C32.3142 59.5008 31.9608 59.7711 31.68 60.0934C31.4097 60.4157 31.2174 60.7328 31.103 61.0448L26.5024 59.8439L28.2959 47.4301H41.2867V51.0794ZM54.9265 51.0794V51.1106H44.8987V47.4301H60.0573V50.8455C59.0073 51.6044 58.1079 52.5297 57.3594 53.6214C56.6108 54.7027 55.987 55.9035 55.4879 57.2239C54.9889 58.5443 54.5938 59.9375 54.3027 61.4034C54.0116 62.8694 53.8036 64.3665 53.6789 65.8949C53.5541 67.4232 53.4917 68.936 53.4917 70.4331H48.6416C48.6416 68.8216 48.704 67.2413 48.8287 65.6921C48.9639 64.143 49.1718 62.6511 49.4526 61.2163C49.7437 59.7815 50.1283 58.4351 50.6066 57.1771C51.0953 55.9087 51.6931 54.7599 52.4001 53.7306C53.1174 52.6909 53.9596 51.8072 54.9265 51.0794ZM72.9536 70.4331V64.0235C72.9536 63.41 72.9536 62.8798 72.9536 62.4327C72.9536 61.9753 72.9536 61.5958 72.9536 61.2943C72.9536 60.868 72.9276 60.4469 72.8757 60.0311C72.8341 59.6152 72.7301 59.2305 72.5638 58.877C72.4078 58.5131 72.1635 58.2272 71.8308 58.0193C71.4981 57.8009 71.0458 57.6918 70.474 57.6918C69.9438 57.6918 69.4863 57.8061 69.1016 58.0349C68.7169 58.2532 68.3998 58.5599 68.1503 58.955C67.9112 59.3397 67.7344 59.7867 67.6201 60.2962C67.5057 60.7952 67.4485 61.3203 67.4485 61.8713L66.1229 60.7796C66.1229 59.3761 66.3776 58.1336 66.8871 57.0524C67.3965 55.9607 68.1191 55.1082 69.0548 54.4947C70.0009 53.8709 71.1186 53.559 72.4078 53.559C73.7906 53.559 74.8667 53.8553 75.636 54.448C76.4158 55.0302 76.9616 55.8099 77.2735 56.7872C77.5958 57.7542 77.757 58.825 77.757 59.9999C77.757 60.4469 77.757 61.05 77.757 61.8089C77.757 62.5679 77.757 63.4776 77.757 64.5381V70.4331H72.9536ZM62.614 70.4331V53.8709H67.4485V70.4331H62.614ZM83.2465 70.4331V64.039C83.2465 63.4048 83.2465 62.859 83.2465 62.4015C83.2465 61.9441 83.2465 61.5646 83.2465 61.2631C83.2465 60.8056 83.2205 60.369 83.1685 59.9531C83.1166 59.5268 83.0074 59.1421 82.841 58.799C82.6747 58.4559 82.4252 58.1856 82.0925 57.9881C81.7598 57.7905 81.3075 57.6918 80.7357 57.6918C80.2054 57.6918 79.748 57.8061 79.3633 58.0349C78.989 58.2532 78.6823 58.5547 78.4432 58.9394C78.204 59.3241 78.0273 59.7607 77.9129 60.2494C77.809 60.738 77.757 61.2475 77.757 61.7777L76.4314 60.7017C76.4314 59.3189 76.6809 58.0921 77.18 57.0212C77.6894 55.9503 78.4068 55.1082 79.3321 54.4947C80.2678 53.8709 81.3855 53.559 82.6851 53.559C84.0367 53.559 85.1024 53.8449 85.8821 54.4168C86.6723 54.9886 87.2337 55.7528 87.5664 56.7093C87.9095 57.6554 88.081 58.7159 88.081 59.8907C88.081 60.3586 88.081 60.9616 88.081 61.6998C88.081 62.4379 88.081 63.3373 88.081 64.3977V70.4331H83.2465Z" fill="#0D0E10"/>
<g filter="url(#filter0_d_620_17403)">
<path d="M23.3921 163.302H40.009C43.8748 163.302 47.1569 160.47 47.7227 156.646L48.8247 149.197C49.4606 144.898 53.4873 141.949 57.7774 142.639L70.5774 144.7C74.3925 145.314 78.0818 143.041 79.2495 139.357L82.7128 128.432C84.5594 122.607 92.0844 121.073 96.0637 125.711L101.303 131.818C103.849 134.785 108.199 135.408 111.475 133.275L119.286 128.191C121.728 126.602 124.851 126.506 127.386 127.943L137.356 133.595C140.785 135.539 145.126 134.618 147.471 131.449L152.573 124.551C154.455 122.006 157.69 120.852 160.758 121.629L169.027 123.726C173.143 124.769 177.337 122.327 178.462 118.233L181.685 106.501C183.181 101.057 189.787 98.9573 194.152 102.539L200.868 108.053C202.263 109.197 204.011 109.823 205.816 109.823H213.295C216.491 109.823 219.363 111.773 220.542 114.744L229.172 136.485C231.043 141.201 236.848 142.901 240.968 139.942L248.346 134.644C251.396 132.453 255.575 132.748 258.287 135.345L260.318 137.29C264.441 141.238 271.27 139.564 273.098 134.156L277.756 120.383C278.827 117.215 281.798 115.083 285.142 115.083H294.326C296.482 115.083 298.542 114.191 300.016 112.617L307.716 104.399C309.191 102.825 311.25 101.933 313.407 101.933H319.841C322.242 101.933 324.509 100.826 325.987 98.9338L333.625 89.1507C335.103 87.2581 337.37 86.1519 339.771 86.1519H345.694" stroke="#B16CEA" stroke-width="3.89882"/>
</g>
<path d="M230.381 61.7763C229.429 61.7763 228.598 61.6247 227.888 61.3214C227.179 61.0182 226.627 60.5633 226.233 59.9569C225.838 59.3443 225.641 58.5862 225.641 57.6826C225.641 57.5795 225.641 57.4885 225.641 57.4096C225.641 57.3247 225.641 57.2307 225.641 57.1276H228.034C228.034 57.2186 228.034 57.3035 228.034 57.3823C228.034 57.4551 228.034 57.54 228.034 57.6371C228.034 58.3648 228.231 58.9107 228.625 59.2746C229.026 59.6324 229.614 59.8113 230.39 59.8113C231.173 59.8113 231.77 59.6809 232.182 59.4201C232.601 59.1593 232.81 58.7409 232.81 58.1647C232.81 57.7462 232.667 57.3914 232.382 57.1003C232.103 56.8032 231.718 56.5424 231.227 56.318C230.736 56.0936 230.178 55.8843 229.553 55.6903C228.85 55.4719 228.21 55.1899 227.634 54.8442C227.058 54.4985 226.597 54.0619 226.251 53.5342C225.905 53.0066 225.732 52.3576 225.732 51.5874C225.732 50.8172 225.929 50.1622 226.324 49.6224C226.724 49.0826 227.27 48.6733 227.961 48.3943C228.659 48.1092 229.45 47.9667 230.336 47.9667C231.263 47.9667 232.079 48.1123 232.783 48.4034C233.492 48.6945 234.047 49.1281 234.448 49.7043C234.848 50.2804 235.048 50.9991 235.048 51.8603C235.048 51.9756 235.048 52.0756 235.048 52.1605C235.048 52.2454 235.048 52.3425 235.048 52.4516H232.646C232.646 52.3728 232.646 52.294 232.646 52.2151C232.646 52.1302 232.646 52.0483 232.646 51.9695C232.646 51.2781 232.458 50.7687 232.082 50.4412C231.706 50.1076 231.136 49.9408 230.372 49.9408C229.626 49.9408 229.053 50.0712 228.653 50.332C228.252 50.5928 228.052 51.0082 228.052 51.5783C228.052 52.0028 228.189 52.3576 228.462 52.6427C228.734 52.9277 229.107 53.1764 229.58 53.3887C230.06 53.5949 230.602 53.8041 231.209 54.0164C232.016 54.2832 232.713 54.5865 233.301 54.9261C233.89 55.2597 234.344 55.6781 234.666 56.1815C234.987 56.6788 235.148 57.3126 235.148 58.0828C235.148 58.8713 234.948 59.5414 234.548 60.0933C234.153 60.6392 233.598 61.0576 232.883 61.3487C232.173 61.6338 231.339 61.7763 230.381 61.7763ZM241.231 61.7581C240.885 61.7581 240.533 61.7248 240.176 61.658C239.818 61.5913 239.49 61.467 239.193 61.2851C238.896 61.1031 238.656 60.8363 238.474 60.4845C238.293 60.1327 238.202 59.6688 238.202 59.0926C238.202 58.9592 238.202 58.8258 238.202 58.6923C238.202 58.5529 238.202 58.4103 238.202 58.2648V53.8253H235.918V51.9149H236.846C237.161 51.9149 237.41 51.9028 237.592 51.8785C237.774 51.8482 237.907 51.7815 237.992 51.6784C238.077 51.5753 238.132 51.4146 238.156 51.1962C238.186 50.9718 238.202 50.6625 238.202 50.2683V48.7309H240.603V51.9149H243.478V53.8253H240.603V57.7007C240.603 57.816 240.603 57.9312 240.603 58.0464C240.603 58.1556 240.603 58.2617 240.603 58.3648C240.603 58.8136 240.658 59.1745 240.767 59.4474C240.876 59.7203 241.134 59.8568 241.54 59.8568C241.734 59.8568 241.916 59.8386 242.086 59.8022C242.262 59.7658 242.392 59.7294 242.477 59.693V61.5671C242.362 61.6095 242.195 61.652 241.977 61.6944C241.759 61.7369 241.51 61.7581 241.231 61.7581ZM247.966 61.7763C247.244 61.7763 246.61 61.6641 246.064 61.4397C245.518 61.2092 245.091 60.8787 244.782 60.4481C244.472 60.0175 244.318 59.499 244.318 58.8925C244.318 58.2314 244.496 57.6886 244.854 57.2641C245.218 56.8335 245.706 56.5029 246.319 56.2725C246.932 56.036 247.611 55.8843 248.357 55.8176C249.461 55.7085 250.231 55.6054 250.667 55.5083C251.11 55.4052 251.332 55.2415 251.332 55.0171C251.332 55.011 251.332 55.008 251.332 55.008C251.332 55.0019 251.332 54.9989 251.332 54.9989C251.332 54.5743 251.141 54.2468 250.758 54.0164C250.376 53.7859 249.837 53.6707 249.139 53.6707C248.405 53.6707 247.841 53.8011 247.447 54.0619C247.059 54.3166 246.865 54.7229 246.865 55.2809H244.5C244.5 54.5228 244.7 53.8829 245.1 53.3614C245.506 52.8337 246.061 52.4334 246.765 52.1605C247.468 51.8876 248.266 51.7512 249.157 51.7512C249.988 51.7512 250.749 51.8755 251.441 52.1241C252.132 52.3728 252.687 52.7488 253.106 53.2522C253.524 53.7556 253.733 54.3833 253.733 55.1353C253.733 55.2627 253.733 55.39 253.733 55.5174C253.733 55.6448 253.733 55.7721 253.733 55.8995V59.5384C253.733 59.7689 253.739 59.9963 253.751 60.2207C253.77 60.439 253.803 60.6361 253.851 60.812C253.912 61.0061 253.985 61.1698 254.07 61.3033C254.155 61.4367 254.221 61.5277 254.27 61.5762H251.905C251.862 61.5337 251.802 61.4518 251.723 61.3305C251.65 61.2032 251.583 61.0576 251.523 60.8939C251.462 60.7119 251.416 60.5179 251.386 60.3117C251.356 60.0994 251.341 59.8659 251.341 59.6112L251.814 59.9387C251.632 60.3086 251.353 60.6331 250.977 60.9121C250.607 61.185 250.164 61.3973 249.649 61.5489C249.133 61.7005 248.572 61.7763 247.966 61.7763ZM248.548 59.8932C249.045 59.8932 249.506 59.8083 249.931 59.6385C250.355 59.4686 250.698 59.2079 250.959 58.8561C251.219 58.4983 251.35 58.0404 251.35 57.4824V56.1906L251.932 56.8456C251.544 56.9912 251.077 57.1125 250.531 57.2095C249.985 57.3005 249.433 57.3732 248.875 57.4278C248.16 57.4945 247.62 57.6189 247.256 57.8008C246.898 57.9828 246.719 58.2799 246.719 58.6923C246.719 59.0926 246.871 59.3928 247.174 59.593C247.477 59.7931 247.935 59.8932 248.548 59.8932ZM259.799 61.7581C259.454 61.7581 259.102 61.7248 258.744 61.658C258.386 61.5913 258.059 61.467 257.761 61.2851C257.464 61.1031 257.225 60.8363 257.043 60.4845C256.861 60.1327 256.77 59.6688 256.77 59.0926C256.77 58.9592 256.77 58.8258 256.77 58.6923C256.77 58.5529 256.77 58.4103 256.77 58.2648V53.8253H254.486V51.9149H255.414C255.73 51.9149 255.978 51.9028 256.16 51.8785C256.342 51.8482 256.476 51.7815 256.561 51.6784C256.646 51.5753 256.7 51.4146 256.724 51.1962C256.755 50.9718 256.77 50.6625 256.77 50.2683V48.7309H259.172V51.9149H262.046V53.8253H259.172V57.7007C259.172 57.816 259.172 57.9312 259.172 58.0464C259.172 58.1556 259.172 58.2617 259.172 58.3648C259.172 58.8136 259.226 59.1745 259.335 59.4474C259.444 59.7203 259.702 59.8568 260.109 59.8568C260.303 59.8568 260.485 59.8386 260.654 59.8022C260.83 59.7658 260.961 59.7294 261.046 59.693V61.5671C260.93 61.6095 260.764 61.652 260.545 61.6944C260.327 61.7369 260.078 61.7581 259.799 61.7581ZM266.964 61.7581C266.279 61.7581 265.709 61.6429 265.254 61.4124C264.805 61.182 264.45 60.8787 264.19 60.5027C263.935 60.1267 263.753 59.7112 263.644 59.2564C263.541 58.8015 263.489 58.3467 263.489 57.8918C263.489 57.6674 263.489 57.4339 263.489 57.1913C263.489 56.9487 263.489 56.7031 263.489 56.4544V51.9149H265.891V56.0814C265.891 56.2998 265.891 56.509 265.891 56.7091C265.891 56.9093 265.891 57.0973 265.891 57.2732C265.891 57.7038 265.942 58.1041 266.045 58.474C266.148 58.8379 266.336 59.132 266.609 59.3564C266.888 59.5808 267.28 59.693 267.783 59.693C268.262 59.693 268.674 59.5536 269.02 59.2746C269.366 58.9895 269.633 58.6317 269.821 58.2011C270.015 57.7705 270.112 57.3338 270.112 56.8911L270.931 57.4369C270.931 58.0252 270.84 58.5801 270.658 59.1017C270.476 59.6172 270.212 60.0751 269.866 60.4754C269.52 60.8757 269.102 61.1911 268.611 61.4215C268.126 61.6459 267.577 61.7581 266.964 61.7581ZM270.112 61.5762V51.9149H272.504V61.5762H270.112ZM278.346 61.7763C277.77 61.7763 277.221 61.7126 276.699 61.5853C276.184 61.4579 275.723 61.2669 275.317 61.0121C274.916 60.7574 274.598 60.442 274.361 60.066C274.131 59.6839 274.016 59.2442 274.016 58.7469C274.016 58.7105 274.016 58.6742 274.016 58.6378C274.016 58.6014 274.016 58.568 274.016 58.5377H276.399C276.399 58.568 276.399 58.5953 276.399 58.6196C276.399 58.6378 276.399 58.6651 276.399 58.7014C276.399 59.0957 276.578 59.3928 276.936 59.593C277.3 59.787 277.794 59.8841 278.419 59.8841C278.758 59.8841 279.077 59.8477 279.374 59.7749C279.677 59.7021 279.92 59.5899 280.102 59.4383C280.29 59.2867 280.384 59.0926 280.384 58.8561C280.384 58.474 280.187 58.2011 279.793 58.0373C279.404 57.8736 278.792 57.725 277.955 57.5916C277.494 57.5127 277.039 57.4066 276.59 57.2732C276.142 57.1398 275.732 56.9608 275.362 56.7364C274.998 56.512 274.704 56.2331 274.48 55.8995C274.261 55.5659 274.152 55.1596 274.152 54.6805C274.152 54.0437 274.34 53.51 274.716 53.0794C275.098 52.6427 275.608 52.3122 276.245 52.0878C276.887 51.8634 277.594 51.7512 278.364 51.7512C279.104 51.7512 279.793 51.8725 280.429 52.115C281.066 52.3576 281.579 52.7064 281.967 53.1612C282.361 53.6161 282.558 54.165 282.558 54.8078C282.558 54.8321 282.558 54.8594 282.558 54.8897C282.558 54.914 282.558 54.9352 282.558 54.9534H280.193C280.193 54.9352 280.193 54.917 280.193 54.8988C280.193 54.8806 280.193 54.8594 280.193 54.8351C280.193 54.5561 280.105 54.3287 279.929 54.1528C279.753 53.9769 279.526 53.8466 279.247 53.7616C278.968 53.6767 278.674 53.6343 278.364 53.6343C278.091 53.6343 277.809 53.6646 277.518 53.7253C277.227 53.7798 276.985 53.8799 276.79 54.0255C276.596 54.165 276.499 54.3621 276.499 54.6168C276.499 54.8594 276.599 55.0565 276.8 55.2081C277 55.3597 277.279 55.4871 277.637 55.5902C277.994 55.6872 278.407 55.7752 278.874 55.854C279.316 55.9268 279.762 56.0269 280.211 56.1542C280.666 56.2816 281.081 56.4514 281.457 56.6637C281.833 56.8759 282.137 57.1549 282.367 57.5006C282.604 57.8402 282.722 58.2617 282.722 58.7651C282.722 59.2988 282.601 59.7537 282.358 60.1297C282.115 60.5057 281.785 60.8181 281.366 61.0667C280.954 61.3093 280.487 61.4882 279.965 61.6035C279.444 61.7187 278.904 61.7763 278.346 61.7763Z" fill="#0D0E10"/>
<defs>
<filter id="filter0_d_620_17403" x="18.1937" y="84.2026" width="332.699" height="96.6446" filterUnits="userSpaceOnUse" color-interpolation-filters="sRGB">
<feFlood flood-opacity="0" result="BackgroundImageFix"/>
<feColorMatrix in="SourceAlpha" type="matrix" values="0 0 0 0 0 0 0 0 0 0 0 0 0 0 0 0 0 0 127 0" result="hardAlpha"/>
<feOffset dy="10.3968"/>
<feGaussianBlur stdDeviation="2.59921"/>
<feComposite in2="hardAlpha" operator="out"/>
<feColorMatrix type="matrix" values="0 0 0 0 0.694118 0 0 0 0 0.423529 0 0 0 0 0.917647 0 0 0 0.25 0"/>
<feBlend mode="normal" in2="BackgroundImageFix" result="effect1_dropShadow_620_17403"/>
<feBlend mode="normal" in="SourceGraphic" in2="effect1_dropShadow_620_17403" result="shape"/>
</filter>
</defs>
</svg>
